<?xml version="1.0" standalone="no"?>
<!DOCTYPE svg PUBLIC "-//W3C//DTD SVG 20010904//EN"
 "http://www.w3.org/TR/2001/REC-SVG-20010904/DTD/svg10.dtd">
<svg version="1.0" xmlns="http://www.w3.org/2000/svg"
 width="512.000000pt" height="512.000000pt" viewBox="0 0 512.000000 512.000000"
 preserveAspectRatio="xMidYMid meet">
<metadata>
Created by potrace 1.11, written by Peter Selinger 2001-2013
</metadata>
<g transform="translate(0.000000,512.000000) scale(0.100000,-0.100000)"
fill="#000000" stroke="none">
<path d="M0 2560 l0 -2560 640 0 640 0 0 1920 0 1920 1920 0 1920 0 0 640 0
640 -2560 0 -2560 0 0 -2560z"/>
<path d="M3391 3054 c-185 -40 -355 -165 -480 -355 l-58 -88 -6 142 c-4 78 -7
172 -7 210 l0 67 -316 0 -316 0 -69 -57 c-38 -32 -69 -63 -69 -68 0 -6 -7 -65
-15 -130 -8 -66 -15 -126 -15 -132 0 -10 40 -13 165 -13 164 0 165 0 165 -22
0 -13 -47 -407 -105 -876 -58 -469 -105 -862 -105 -872 0 -19 9 -20 244 -20
l244 0 6 27 c3 16 39 305 81 643 42 338 85 653 96 700 67 286 260 460 509 460
240 0 360 -139 360 -415 -1 -44 -38 -380 -83 -747 l-83 -668 348 0 348 0 64
52 64 52 16 122 c9 67 16 133 16 148 l0 26 -155 0 c-85 0 -155 2 -155 4 0 2
27 229 61 503 33 274 64 543 68 597 15 184 -18 355 -88 465 -77 120 -218 214
-366 246 -87 18 -278 18 -364 -1z"/>
</g>
</svg>
